<svg width="79" height="84" viewBox="0 0 79 84" fill="none" xmlns="http://www.w3.org/2000/svg">
<g filter="url(#filter0_d)">
<path d="M41.2931 4.03819C40.1292 3.39243 38.7146 3.39243 37.5506 4.03819L9.86544 19.3982C8.63988 20.0782 7.8796 21.3694 7.8796 22.771V53.229C7.8796 54.6306 8.63987 55.9218 9.86544 56.6018L37.5506 71.9618C38.7146 72.6076 40.1292 72.6076 41.2931 71.9618L68.9783 56.6018C70.2039 55.9218 70.9641 54.6306 70.9641 53.229V22.771C70.9641 21.3694 70.2039 20.0782 68.9783 19.3982L41.2931 4.03819Z" fill="url(#paint0_radial)"/>
</g>
<mask id="mask0" mask-type="alpha" maskUnits="userSpaceOnUse" x="14" y="19" width="47" height="39">
<mask id="mask1" maskUnits="userSpaceOnUse" x="42" y="20" width="18" height="12">
<rect width="3.20167" height="19.0049" rx="0.900571" transform="matrix(-0.496388 0.866668 0.890182 0.458183 43.3208 20.3262)" fill="#8E8E8E"/>
</mask>
<g mask="url(#mask1)">
<rect width="16.6529" height="16.349" rx="0.900571" transform="matrix(-0.999692 0.0248159 0.0276125 0.999619 59.8813 16.125)" fill="#C4C4C4"/>
</g>
<rect width="3.20161" height="19.0052" rx="0.900571" transform="matrix(-0.520159 0.854069 0.877209 0.480108 15.665 44.189)" fill="#8E8E8E"/>
<mask id="mask2" maskUnits="userSpaceOnUse" x="43" y="44" width="19" height="14">
<rect width="17.7637" height="12.9805" rx="0.900571" transform="matrix(-1 0 0 1 61.2031 44.54)" fill="#C4C4C4"/>
</mask>
<g mask="url(#mask2)">
<path d="M60.4131 47.7068C60.8494 47.468 60.9934 46.9301 60.7347 46.5053L60.0062 45.3092C59.7475 44.8844 59.1841 44.7336 58.7478 44.9724L43.4024 53.3711L42.5898 53.8158C42.1535 54.0546 42.0096 54.5926 42.2683 55.0174L43.4652 56.9826L60.4131 47.7068Z" fill="#8E8E8E"/>
</g>
<rect width="3.15741" height="15.2472" rx="0.900571" transform="matrix(0 -1 -1 0 58.7598 39.6985)" fill="#8E8E8E"/>
<rect width="3.3307" height="34.942" rx="0.900571" transform="matrix(-1 0 0 1 46.7695 22.1575)" fill="#8E8E8E"/>
<rect width="3.3307" height="37.8188" rx="0.900571" transform="matrix(-1 0 0 1 33.1509 19)" fill="#8E8E8E"/>
<rect width="3.3307" height="25.961" rx="0.900571" transform="matrix(-1 0 0 1 58.3164 25.5955)" fill="#8E8E8E"/>
</mask>
<g mask="url(#mask0)">
<path d="M38.7315 18.3113C37.9611 17.9061 37.0406 17.9061 36.2702 18.3113L18.947 27.4224C18.078 27.8794 17.5339 28.7804 17.5339 29.7622V47.572C17.5339 48.5539 18.078 49.4548 18.947 49.9119L36.2702 59.023C37.0406 59.4281 37.9611 59.4281 38.7315 59.023L56.0547 49.9119C56.9237 49.4548 57.4678 48.5539 57.4678 47.572V29.7622C57.4678 28.7804 56.9237 27.8794 56.0547 27.4224L38.7315 18.3113Z" fill="url(#paint1_angular)"/>
</g>
<defs>
<filter id="filter0_d" x="0.829501" y="0.957187" width="77.1843" height="82.9921" filterUnits="userSpaceOnUse" color-interpolation-filters="sRGB">
<feFlood flood-opacity="0" result="BackgroundImageFix"/>
<feColorMatrix in="SourceAlpha" type="matrix" values="0 0 0 0 0 0 0 0 0 0 0 0 0 0 0 0 0 0 127 0"/>
<feOffset dy="4.45313"/>
<feGaussianBlur stdDeviation="3.52495"/>
<feColorMatrix type="matrix" values="0 0 0 0 0.470588 0 0 0 0 0.709804 0 0 0 0 1 0 0 0 0.17 0"/>
<feBlend mode="normal" in2="BackgroundImageFix" result="effect1_dropShadow"/>
<feBlend mode="normal" in="SourceGraphic" in2="effect1_dropShadow" result="shape"/>
</filter>
<radialGradient id="paint0_radial" cx="0" cy="0" r="1" gradientUnits="userSpaceOnUse" gradientTransform="translate(39.4219 38) rotate(89.7533) scale(86.7506 90.2749)">
<stop stop-color="#515A79"/>
<stop offset="0.427083" stop-color="#353C54"/>
</radialGradient>
<radialGradient id="paint1_angular" cx="0" cy="0" r="1" gradientUnits="userSpaceOnUse" gradientTransform="translate(37.501 38.6671) rotate(90) scale(21.0031 23.0558)">
<stop offset="0.0260417" stop-color="#70C282"/>
<stop offset="0.244792" stop-color="#7DC1C6"/>
<stop offset="0.536458" stop-color="#656EC4"/>
<stop offset="0.71875" stop-color="#A790CD"/>
<stop offset="0.984375" stop-color="#CC8DB3"/>
</radialGradient>
</defs>
</svg>
